<svg xmlns="http://www.w3.org/2000/svg" viewBox="0 0 512 512"><linearGradient id="a" x1="31.228" x2="456.443" y1="31.345" y2="456.56" gradientUnits="userSpaceOnUse"><stop offset="0" stop-color="#f7852f"/><stop offset=".344" stop-color="#f2e5ad"/><stop offset=".64" stop-color="#db4d4d"/><stop offset="1" stop-color="#efb7b4"/></linearGradient><path fill="url(#a)" d="M152.271 512.389h208c22.055 0 40-17.945 40-40v-432c0-22.055-17.945-40-40-40h-208c-22.055 0-40 17.945-40 40v432c0 22.054 17.946 40 40 40zm176.001-496-9.571 12.762c-1.539 2.027-3.945 3.238-6.43 3.238H194.193c-3.047 0-5.789-1.707-7.172-4.465l-5.788-11.535h147.039zm-176.001 0h11.066l9.379 18.699c4.102 8.203 12.332 13.301 21.477 13.301h118.078c7.457 0 14.625-3.574 19.199-9.598l16.8-22.402h12.001c13.234 0 24 10.766 24 24v424h-184a8 8 0 0 0 0 16h182.526c-3.313 9.292-12.11 16-22.526 16h-208c-10.416 0-19.212-6.708-22.525-16h38.525a8 8 0 0 0 0-16h-40v-424c0-13.235 10.766-24 24-24z"/><linearGradient id="b" x1="19.227" x2="444.443" y1="43.346" y2="468.561" gradientUnits="userSpaceOnUse"><stop offset="0" stop-color="#f7852f"/><stop offset=".344" stop-color="#f2e5ad"/><stop offset=".64" stop-color="#db4d4d"/><stop offset="1" stop-color="#efb7b4"/></linearGradient><path fill="url(#b)" d="M144.271 384.389h224a8 8 0 0 0 8-8v-128c0-1.609-.52-3.121-1.381-4.413l.038-.025-30.656-45.984v-45.578a8 8 0 0 0-2.344-5.656l-32-32a8 8 0 0 0-5.656-2.344h-128a8 8 0 0 0-8 8v77.578l-30.656 45.984.038.025c-.862 1.292-1.381 2.804-1.381 4.413v128a7.997 7.997 0 0 0 7.998 8zm74.023-78.906-66.022 54.022v-96.469l66.022 42.447zm141.977 54.023-66.022-54.022 66.022-42.446v96.468zM280.1 314.58l65.761 53.809h-179.18l65.761-53.809 19.504 12.54a7.99 7.99 0 0 0 8.648 0l19.506-12.54zm32.171-174.879 4.688 4.688h-4.688v-4.688zm-16-11.312v24a8 8 0 0 0 8 8h24v80a8 8 0 0 0 16 0v-13.578l12.832 19.248-100.832 64.823-72-46.288V128.389h112zm-128 125.919-12.832-8.25 12.832-19.248v27.498z"/><linearGradient id="c" x1="43.228" x2="468.443" y1="19.345" y2="444.56" gradientUnits="userSpaceOnUse"><stop offset="0" stop-color="#f7852f"/><stop offset=".344" stop-color="#f2e5ad"/><stop offset=".64" stop-color="#db4d4d"/><stop offset="1" stop-color="#efb7b4"/></linearGradient><path fill="url(#c)" d="M216.271 272.389h80a7.99 7.99 0 0 0 6.594-3.473 7.994 7.994 0 0 0 .871-7.402l-13.121-34.078-26.875-69.914a7.999 7.999 0 0 0-14.938 0l-38.312 99.611-.042.11-1.65 4.291a8 8 0 0 0 7.473 10.855zm22.9-45.259 29.098-13.234 4.714 12.251-40.535 18.454 6.723-17.471zm6.001 29.259 33.568-15.28 5.879 15.28h-39.447zm11.095-73.684 6.246 16.233-15.144 6.888 8.898-23.121z"/></svg>